<svg width="18" height="30" viewBox="0 0 18 30" fill="none" xmlns="http://www.w3.org/2000/svg">
<path id="Vector" opacity="0.4" fill-rule="evenodd" clip-rule="evenodd" d="M17.2213 0.691339C17.6795 1.13458 17.9368 1.73541 17.9368 2.36185C17.9368 2.98829 17.6795 3.58912 17.2213 4.03236L5.90211 14.9695L17.2213 25.9066C17.4617 26.123 17.6545 26.384 17.7882 26.674C17.9219 26.9639 17.9938 27.277 17.9996 27.5944C18.0054 27.9118 17.945 28.2271 17.8219 28.5214C17.6989 28.8158 17.5157 29.0831 17.2834 29.3076C17.0511 29.5321 16.7744 29.7091 16.4697 29.828C16.1651 29.9468 15.8388 30.0052 15.5103 29.9996C15.1818 29.994 14.8579 29.9246 14.5578 29.7954C14.2577 29.6662 13.9876 29.4799 13.7636 29.2476L0.715492 16.64C0.257339 16.1967 0 15.5959 0 14.9695C0 14.343 0.257339 13.7422 0.715492 13.299L13.7636 0.691339C14.2223 0.248652 14.8441 0 15.4925 0C16.1408 0 16.7626 0.248652 17.2213 0.691339Z" fill="white"/>
</svg>
