<svg width="18" height="30" viewBox="0 0 18 30" fill="none" xmlns="http://www.w3.org/2000/svg">
<path id="Vector" opacity="0.5" fill-rule="evenodd" clip-rule="evenodd" d="M0.718012 29.3059C0.258245 28.8609 0 28.2577 0 27.6288C0 26.9999 0.258245 26.3967 0.718012 25.9517L12.0771 14.9714L0.718012 3.99116C0.284337 3.54127 0.0482414 2.94623 0.0594637 2.33139C0.070686 1.71656 0.32835 1.12993 0.778173 0.695111C1.228 0.260289 1.83486 0.0112178 2.47091 0.000369745C3.10695 -0.0104783 3.72252 0.217744 4.18794 0.636956L17.282 13.2943C17.7418 13.7393 18 14.3425 18 14.9714C18 15.6004 17.7418 16.2036 17.282 16.6485L4.18794 29.3059C3.7276 29.7504 3.10359 30 2.45297 30C1.80236 30 1.17835 29.7504 0.718012 29.3059Z" fill="white"/>
</svg>
